HIERARCHY
ROOT Hips
{
	OFFSET 0.000000 0.000000 0.000000
	CHANNELS 6 Xposition Yposition Zposition Xrotation Yrotation Zrotation
	JOINT LeftUpLeg_virtual
	{
		OFFSET 0.000000 0.000000 0.000000
		CHANNELS 3 Xrotation Yrotation Zrotation
		JOINT LeftUpLeg
		{
			OFFSET 15.427100 -6.655098 0.678600
			CHANNELS 3 Xrotation Yrotation Zrotation
			JOINT LeftLeg
			{
				OFFSET 4.081073 -39.591068 13.024000
				CHANNELS 3 Xrotation Yrotation Zrotation
				JOINT LeftFoot
				{
					OFFSET -4.081074 -37.707932 -15.979700
					CHANNELS 3 Xrotation Yrotation Zrotation
					JOINT LeftToeBase
					{
						OFFSET 5.346399 -15.068900 20.645000
						CHANNELS 3 Xrotation Yrotation Zrotation
						JOINT LeftToe_End
						{
							OFFSET 2.754700 0.931300 11.300900
							CHANNELS 3 Xrotation Yrotation Zrotation
							End Site
							{
								OFFSET 0 0 0
							}
						}
					}
				}
			}
		}
	}
	JOINT RightUpLeg_virtual
	{
		OFFSET 0.000000 0.000000 0.000000
		CHANNELS 3 Xrotation Yrotation Zrotation
		JOINT RightUpLeg
		{
			OFFSET -15.569500 -6.655098 0.678600
			CHANNELS 3 Xrotation Yrotation Zrotation
			JOINT RightLeg
			{
				OFFSET -4.081825 -39.591045 13.023800
				CHANNELS 3 Xrotation Yrotation Zrotation
				JOINT RightFoot
				{
					OFFSET 4.081824 -37.707954 -15.979600
					CHANNELS 3 Xrotation Yrotation Zrotation
					JOINT RightToeBase
					{
						OFFSET -5.346400 -15.068900 20.645000
						CHANNELS 3 Xrotation Yrotation Zrotation
						JOINT RightToe_End
						{
							OFFSET -2.754700 0.931300 11.300900
							CHANNELS 3 Xrotation Yrotation Zrotation
							End Site
							{
								OFFSET 0 0 0
							}
						}
					}
				}
			}
		}
	}
	JOINT Spine_virtual
	{
		OFFSET 0.000000 0.000000 0.000000
		CHANNELS 3 Xrotation Yrotation Zrotation
		JOINT Spine
		{
			OFFSET -0.279200 12.230698 -2.892100
			CHANNELS 3 Xrotation Yrotation Zrotation
			JOINT Spine1
			{
				OFFSET -0.232667 10.192268 -1.242267
				CHANNELS 3 Xrotation Yrotation Zrotation
				JOINT Spine1_split
				{
					OFFSET -0.232667 10.192268 -1.242267
					CHANNELS 3 Xrotation Yrotation Zrotation
					JOINT Spine2
					{
						OFFSET -0.232667 10.192268 -1.242267
						CHANNELS 3 Xrotation Yrotation Zrotation
						JOINT Neck_virtual
						{
							OFFSET 0.000000 0.000000 0.000000
							CHANNELS 3 Xrotation Yrotation Zrotation
							JOINT Neck
							{
								OFFSET -0.418800 17.814194 8.416900
								CHANNELS 3 Xrotation Yrotation Zrotation
								JOINT Head
								{
									OFFSET 0.000000 7.031097 3.806800
									CHANNELS 3 Xrotation Yrotation Zrotation
									JOINT HeadTop_End
									{
										OFFSET 0.000000 24.646606 12.978600
										CHANNELS 3 Xrotation Yrotation Zrotation
										End Site
										{
											OFFSET 0 0 0
										}
									}
								}
							}
						}
						JOINT LeftShoulder_virtual
						{
							OFFSET 0.000000 0.000000 0.000000
							CHANNELS 3 Xrotation Yrotation Zrotation
							JOINT LeftShoulder
							{
								OFFSET 8.476499 7.247704 -3.868750
								CHANNELS 3 Xrotation Yrotation Zrotation
								JOINT LeftShoulder_split
								{
									OFFSET 8.476499 7.247704 -3.868750
									CHANNELS 3 Xrotation Yrotation Zrotation
									JOINT LeftArm
									{
										OFFSET 9.308998 -2.777710 0.208600
										CHANNELS 3 Xrotation Yrotation Zrotation
										JOINT LeftForeArm
										{
											OFFSET 29.972298 0.000000 0.000000
											CHANNELS 3 Xrotation Yrotation Zrotation
											JOINT LeftHand
											{
												OFFSET 26.026505 0.000000 0.000000
												CHANNELS 3 Xrotation Yrotation Zrotation
												End Site
												{
													OFFSET 0 0 0
												}
											}
										}
									}
								}
							}
						}
						JOINT RightShoulder_virtual
						{
							OFFSET 0.000000 0.000000 0.000000
							CHANNELS 3 Xrotation Yrotation Zrotation
							JOINT RightShoulder
							{
								OFFSET -7.570500 7.247704 -3.868750
								CHANNELS 3 Xrotation Yrotation Zrotation
								JOINT RightShoulder_split
								{
									OFFSET -7.570500 7.247704 -3.868750
									CHANNELS 3 Xrotation Yrotation Zrotation
									JOINT RightArm
									{
										OFFSET -9.308998 -2.777710 0.208500
										CHANNELS 3 Xrotation Yrotation Zrotation
										JOINT RightForeArm
										{
											OFFSET -29.972300 0.000000 0.000000
											CHANNELS 3 Xrotation Yrotation Zrotation
											JOINT RightHand
											{
												OFFSET -26.026505 0.000000 0.000000
												CHANNELS 3 Xrotation Yrotation Zrotation
												End Site
												{
													OFFSET 0 0 0
												}
											}
										}
									}
								}
							}
						}
					}
				}
			}
		}
	}
}
MOTION
Frames: 9
Frame Time: 0.03333333
69.671677 90.206253 43.063126 0.000000 0.000000 0.000000 1.235354 65.445548 -3.771101 -19.706172 -13.749485 0.499419 19.596612 -4.772839 -11.199183 -1.374703 -17.632057 2.942792 2.695926 -4.253541 2.018500 0.000000 0.000000 0.000000 2.200171 70.152327 -4.796198 11.659124 -8.335816 1.340393 27.961686 4.915041 -1.817215 -2.419371 -19.100911 14.067537 -29.652795 0.129709 4.051938 0.000000 0.000000 0.000000 -1.316882 63.291641 -2.030947 6.772429 15.297119 -3.119458 -1.164923 12.401437 -1.355103 1.193164 -1.619145 0.478118 0.000000 0.000000 0.000000 -0.306255 12.379187 -1.714305 25.940437 -15.829443 7.753154 -32.615693 -67.916287 -1.692949 0.000000 0.000000 0.000000 -0.758713 12.372416 -1.392526 -2.990864 -7.469877 -15.936269 1.575787 3.837625 -4.553081 26.817239 -53.116298 -29.108630 -2.578588 -70.674699 -2.763869 0.000000 0.000000 0.000000 -0.945079 11.948265 -2.196426 -6.691559 32.325352 19.603864 -5.666751 -0.054756 1.926320 -3.388314 26.838313 53.908788 -3.607983 49.159658 -0.221403 0.000000 0.000000 0.000000 
69.105469 90.132469 42.976292 0.000000 0.000000 0.000000 1.243082 63.398212 -3.577935 -20.229118 -13.693401 0.851872 19.963297 -3.499502 -11.090680 -1.205728 -17.136847 2.737539 3.246720 -4.240917 1.814545 0.000000 0.000000 0.000000 2.207902 67.987068 -4.605193 11.780773 -8.790737 0.097700 26.899903 3.898987 -2.364121 -5.666903 -20.891773 10.176725 -24.128816 -0.286404 5.622904 0.000000 0.000000 0.000000 -0.683220 61.206131 -2.502712 6.776019 14.886346 -2.948272 -1.077599 11.901035 -1.134790 1.056102 -1.774166 0.527670 0.000000 0.000000 0.000000 -0.217826 11.920184 -1.493009 24.125393 -15.294139 6.974198 -31.564329 -67.447189 -1.045626 0.000000 0.000000 0.000000 -0.839603 11.960274 -1.259959 -2.930907 -7.035637 -15.887575 0.853077 3.997029 -4.481647 28.418682 -55.077402 -27.941197 -1.174626 -68.274871 -1.570279 0.000000 0.000000 0.000000 -0.907169 11.589760 -1.961400 -6.982470 31.411388 20.604246 -5.725378 0.194482 2.224426 -3.989188 25.262522 54.523874 -3.401033 48.666307 -0.265266 0.000000 0.000000 0.000000 
68.467422 90.106995 42.936111 0.000000 0.000000 0.000000 1.299719 60.986479 -3.386958 -20.749479 -13.292883 1.441358 20.556515 -2.109322 -10.984256 -1.155148 -16.585883 2.317281 3.693110 -4.214314 1.678619 0.000000 0.000000 0.000000 2.268443 65.425016 -4.359888 11.911793 -9.197500 -1.228404 25.948384 2.866987 -3.043794 -8.068783 -23.192693 7.243241 -20.161754 -0.621759 6.771386 0.000000 0.000000 0.000000 -0.303660 58.957660 -2.723052 6.742391 14.420498 -2.728557 -0.977509 11.338613 -0.997502 0.866607 -1.937880 0.534426 0.000000 0.000000 0.000000 -0.129420 11.384496 -1.346119 21.896994 -14.654316 5.721835 -29.708389 -66.644806 0.004630 0.000000 0.000000 0.000000 -0.858496 11.458792 -1.197666 -2.879008 -6.620782 -15.875185 0.402588 4.335478 -4.362413 29.236778 -56.543222 -27.424372 0.338406 -66.196588 -0.366761 0.000000 0.000000 0.000000 -0.795971 11.150151 -1.795781 -7.163422 30.499605 21.458957 -5.510956 0.246559 2.494393 -4.484063 24.354665 54.354451 -3.200182 48.432916 -0.255397 0.000000 0.000000 0.000000 
67.787170 90.070808 42.916519 0.000000 0.000000 0.000000 1.444135 58.267743 -3.259713 -21.212148 -12.547258 2.296606 21.327604 -0.732774 -10.832405 -1.173886 -15.954666 1.779586 3.772696 -4.192280 1.606666 0.000000 0.000000 0.000000 2.516299 62.555449 -4.260768 12.041119 -9.473744 -2.347250 24.739893 2.252949 -3.887712 -10.203367 -25.370951 5.753934 -17.809107 -0.780428 6.993021 0.000000 0.000000 0.000000 -0.047024 56.495343 -2.823219 6.669023 13.901634 -2.452318 -0.876010 10.715312 -0.904451 0.745646 -2.109800 0.583648 0.000000 0.000000 0.000000 -0.064862 10.767294 -1.230720 19.372013 -13.863019 3.832814 -26.788839 -65.345622 1.643898 0.000000 0.000000 0.000000 -0.839052 10.867098 -1.157600 -2.837742 -6.211835 -15.946680 0.256581 4.613291 -4.224882 28.745698 -57.208199 -28.120951 1.680813 -64.922936 0.636203 0.000000 0.000000 0.000000 -0.635732 10.598057 -1.684098 -7.210360 29.597115 22.111641 -5.196793 0.055701 2.725835 -4.324851 24.098012 53.241287 -2.996979 49.057461 -0.215652 0.000000 0.000000 0.000000 
67.055656 90.014206 42.882786 0.000000 0.000000 0.000000 1.797452 55.259915 -3.312984 -21.603999 -11.498448 3.395283 22.226525 0.482494 -10.582486 -1.173693 -15.209139 1.340711 3.541785 -4.194260 1.563588 0.000000 0.000000 0.000000 2.872629 59.490627 -4.262542 12.152339 -9.828267 -2.953534 23.479257 1.902366 -4.801359 -12.745776 -27.100978 4.995599 -15.970838 -0.646524 6.194761 0.000000 0.000000 0.000000 0.270653 53.879824 -2.971299 6.557160 13.341099 -2.086566 -0.762466 10.024319 -0.800622 0.690033 -2.167685 0.599975 0.000000 0.000000 0.000000 -0.020094 10.061470 -1.100565 16.675280 -12.853862 1.283012 -23.181331 -63.515200 3.601280 0.000000 0.000000 0.000000 -0.785784 10.186977 -1.086673 -2.789187 -5.745583 -16.108047 0.271307 4.785949 -4.191447 26.968684 -56.891046 -30.095729 2.649906 -64.642003 1.323137 0.000000 0.000000 0.000000 -0.486113 9.929055 -1.572428 -7.124922 28.689554 22.557291 -4.832587 -0.188904 2.935393 -3.271725 24.312180 51.349239 -2.845312 50.999032 -0.149340 0.000000 0.000000 0.000000 
66.196449 89.907349 42.880646 0.000000 0.000000 0.000000 2.156971 52.178230 -3.417268 -21.913296 -10.163264 4.704868 23.102261 1.438697 -10.269173 -1.138555 -14.319597 1.083793 3.215061 -4.206657 1.483960 0.000000 0.000000 0.000000 3.170771 56.373199 -4.238569 12.051470 -10.222198 -3.027566 22.187342 1.782856 -5.653320 -16.114371 -28.075098 4.330363 -13.383082 -0.219703 4.610763 0.000000 0.000000 0.000000 0.571662 51.271522 -3.148371 6.435903 12.717108 -1.668711 -0.628159 9.263291 -0.647384 0.693734 -2.134698 0.582698 0.000000 0.000000 0.000000 0.031402 9.280041 -0.920909 13.972846 -11.663305 -1.766954 -19.279879 -61.257077 5.598297 0.000000 0.000000 0.000000 -0.672416 9.426639 -0.940595 -2.711610 -5.286750 -16.337281 0.356227 4.688543 -4.230550 24.536838 -55.792390 -32.786424 3.156521 -65.196847 1.639979 0.000000 0.000000 0.000000 -0.362546 9.159929 -1.415104 -6.912117 27.745285 22.823265 -4.438221 -0.249946 3.085767 -1.429624 24.728565 49.177844 -2.694244 54.458703 -0.116027 0.000000 0.000000 0.000000 
65.234535 89.774460 42.842075 0.000000 0.000000 0.000000 2.467064 49.009978 -3.513646 -22.141646 -8.571833 6.131481 23.690306 2.076813 -9.898528 -1.070757 -13.274804 0.982621 2.949036 -4.219899 1.338255 0.000000 0.000000 0.000000 3.321515 53.361707 -4.186350 11.658665 -10.691382 -2.787737 21.136229 1.917561 -6.317798 -19.382771 -28.014373 3.981856 -10.358580 0.306333 2.669337 0.000000 0.000000 0.000000 0.787352 48.742638 -3.272946 6.325127 12.036799 -1.251571 -0.469620 8.451081 -0.432129 0.797710 -2.025043 0.553965 0.000000 0.000000 0.000000 0.121049 8.457857 -0.684838 11.461849 -10.303106 -5.005871 -15.611482 -58.763799 7.368795 0.000000 0.000000 0.000000 -0.492479 8.623324 -0.712792 -2.594001 -4.870213 -16.572418 0.433960 4.276504 -4.274686 22.032006 -54.339670 -35.657771 3.209910 -66.252507 1.655199 0.000000 0.000000 0.000000 -0.243373 8.328697 -1.201101 -6.610139 26.706402 23.016269 -4.037395 0.009969 3.170920 0.933011 25.084274 47.108846 -2.506416 59.159827 -0.136805 0.000000 0.000000 0.000000 
64.138763 89.710373 42.752846 0.000000 0.000000 0.000000 2.670624 45.938466 -3.540552 -22.272200 -6.795291 7.556236 23.880575 2.336352 -9.495879 -0.991745 -12.110474 0.883549 2.754021 -4.221316 1.176775 0.000000 0.000000 0.000000 3.301321 50.427826 -4.020423 10.936325 -11.162552 -2.436380 20.547992 2.239339 -6.761883 -21.408173 -27.159861 4.330838 -7.981868 0.725539 0.851441 0.000000 0.000000 0.000000 0.894435 46.338643 -3.299402 6.213463 11.322405 -0.886097 -0.290433 7.632687 -0.181188 0.873039 -1.872395 0.507162 0.000000 0.000000 0.000000 0.263266 7.654424 -0.413899 9.291283 -8.894168 -8.109263 -12.578223 -56.272808 8.702282 0.000000 0.000000 0.000000 -0.256413 7.832583 -0.435006 -2.426854 -4.524497 -16.784947 0.520236 3.844827 -4.286950 19.741420 -52.921159 -38.383204 2.963770 -67.352796 1.474647 0.000000 0.000000 0.000000 -0.122102 7.514164 -0.928656 -6.245545 25.541791 23.167945 -3.582903 0.365021 3.200510 3.247675 25.080586 45.471540 -2.303617 64.440827 -0.208533 0.000000 0.000000 0.000000 
62.945457 89.757797 42.609535 0.000000 0.000000 0.000000 2.712454 43.144676 -3.466580 -22.336049 -4.898145 8.941061 23.631874 2.144439 -9.119423 -0.797026 -10.938889 0.526879 2.461429 -4.190294 1.056249 0.000000 0.000000 0.000000 3.139624 47.589948 -3.784466 10.079176 -11.409746 -2.070483 19.991282 2.740894 -7.090296 -22.069818 -25.727079 5.238493 -6.243681 0.921571 -0.451331 0.000000 0.000000 0.000000 0.859015 44.012752 -3.170016 6.087059 10.612087 -0.622190 -0.121688 6.871044 0.064229 0.937406 -1.673115 0.465698 0.000000 0.000000 0.000000 0.435816 6.930251 -0.140429 7.589530 -7.572766 -10.757058 -10.275914 -53.890705 9.613883 0.000000 0.000000 0.000000 -0.006234 7.114144 -0.161050 -2.218341 -4.295254 -16.940507 0.632776 3.550224 -4.204934 17.707552 -51.763166 -40.882394 2.703550 -68.140945 1.312246 0.000000 0.000000 0.000000 0.024292 6.791353 -0.629039 -5.830901 24.232715 23.290901 -3.175492 0.629755 3.105495 5.041300 24.582973 44.398323 -2.083848 69.484006 -0.305170 0.000000 0.000000 0.000000 
